<?xml version="1.0" encoding="utf-8"?>
<!-- Generator: Adobe Illustrator 22.0.1, SVG Export Plug-In . SVG Version: 6.00 Build 0)  -->
<svg version="1.1" id="Layer_1" xmlns="http://www.w3.org/2000/svg" xmlns:xlink="http://www.w3.org/1999/xlink" x="0px" y="0px"
	 viewBox="0 0 822 100" style="enable-background:new 0 0 822 100;" xml:space="preserve">
<style type="text/css">
	.st0{fill:#EE4031;}
</style>
<g id="Heart">
	<path class="st0" d="M60.5,28.8c-2.5-4.1-6.9-5.9-11.6-5.2s-8.5,3.7-11.4,7.2c-3-3.5-6.8-6.4-11.4-7.2c-4.6-0.8-9,1.1-11.5,5.2
		s-2.5,9-0.8,13.4c1.8,5,5.4,9,9.1,12.7c4.7,4.6,9.5,9,14.2,13.4c0.4,0.4,0.7,0.4,1.1,0c4.7-4.5,9.5-9,14.2-13.4
		c3.7-3.6,7.4-7.7,9.1-12.7C63.1,37.9,63.1,32.9,60.5,28.8z"/>
</g>
<path class="st0" d="M2043.1,42.6h-444.4l-3.8,13.3l-6.5-32.8L1578,89.9l-6.4-89.3l-9.9,58.2l-3.8-16.1h-15.3h-3.2h-9l-3.8,13.3
	l-6.6-32.8l-10.4,66.7l-6.4-89.3l-9.9,58.2l-3.8-16.1h-11.1h-5.3h-6.8l-3.8,13.3l-6.5-32.7l-10.5,66.7l-6.4-89.4l-9.9,58.1
	l-3.7-16.1h-15.4h-1h-11.1l-3.8,13.3l-6.5-32.7l-10.5,66.7l-6.4-89.4l-9.9,58.1l-3.7-16.1h-15.4h-1h-11.1l-3.8,13.3l-6.5-32.7
	L1309,89.9l-6.4-89.4l-9.9,58.1l-3.7-16.1h-13.2h-3.2h-9l-3.7,13.3l-6.6-32.7l-10.4,66.7l-6.4-89.3l-9.9,58.2l-3.8-16.1h-13.2h-3.2
	h-8.9l-3.8,13.3l-6.5-32.7l-10.5,66.7l-6.4-89.4l-9.9,58.2l-3.8-16.1h-15.3h-1.1h-11l-3.8,13.3l-6.5-32.7l-10.5,66.7L1102,0.5
	l-9.9,58.2l-3.8-16.1h-13.2h-3.2h-8.9l-3.8,13.3l-6.5-32.8l-10.4,66.7l-6.5-89.3l-9.9,58.1l-3.7-16.1H1009h-3.2h-9l-3.7,13.3
	l-6.5-32.7l-10.5,66.7l-6.4-89.4l-9.9,58.2L956,42.6h-13.2h-3.2h-8.9l-3.8,13.3l-6.5-32.7l-10.5,66.7l-6.4-89.4l-9.9,58.2l-3.8-16.1
	h-15.3h-1.1h-11l-3.8,13.3L852,23.2l-10.5,66.7l-6.4-89.4l-9.9,58.2l-3.8-16.1h-13.2h-3.2h-8.9l-3.8,13.3l-6.5-32.8l-10.4,66.7
	l-6.4-89.3l-9.9,58.2l-3.8-16.1H740h-1h-11.1l-3.8,13.3l-6.6-32.8l-10.4,66.7l-6.4-89.3l-9.9,58.2l-3.8-16.1h-15.4h-1h-11.1
	l-3.8,13.3l-6.6-32.8l-10.4,66.7l-6.4-89.3l-9.9,58.2l-3.8-16.1h-11.1h-5.3h-6.8l-3.8,13.3l-6.5-32.7l-10.5,66.7l-6.4-89.4
	l-9.9,58.1l-3.7-16.1h-11.1h-5.4h-6.8l-3.7,13.3l-6.5-32.7l-10.5,66.7l-6.4-89.4l-9.9,58.2l-3.8-16.1h-15.3h-1.1h-11.1l-3.7,13.3
	l-6.5-32.7l-10.5,66.7l-6.4-89.4l-9.9,58.2l-3.8-16.1h-15.3H406h-11.1l-3.7,13.3l-6.5-32.7l-10.5,66.7l-6.4-89.4l-9.9,58.2
	l-3.8-16.1h-17.4h-1.1h-11.1l-3.8,13.3l-6.6-32.8l-10.4,66.7l-6.4-89.3l-9.9,58.2l-3.8-16.1h-17.5h-1h-11.1l-3.8,13.3l-6.5-32.7
	l-10.5,66.7l-6.4-89.4L217,58.7l-3.7-16.1h-15.4h-1h-11.1L182,55.9l-6.5-32.7L165,89.9l-6.4-89.4l-9.9,58.1L145,42.6h-17.5h-1.1
	h-11.1l-3.7,13.3L105,23.2L94.6,89.9L88.2,0.5l-9.9,58.2l-3.8-16.1H56c-0.3,0-0.5,0.2-0.5,0.5s0.2,0.5,0.5,0.5h17.7l4.8,20.1
	l9.3-54.8l6.4,89.8l10.9-69.9l6.3,31.3l4.7-16.5h10.3h1.1h16.7l4.7,20.1l9.3-54.9l6.4,89.8l10.9-69.9l6.3,31.3l4.8-16.5h10.3h1h14.6
	l4.7,20.1l9.3-54.9l6.4,89.8l10.9-69.9l6.3,31.3l4.8-16.5h10.3h1h16.7l4.8,20.1L297,8.9l6.4,89.9l10.8-69.9l6.2,31.2l4.8-16.5h10.3
	h1.1h16.6l4.8,20.1l9.3-54.8l6.4,89.8l10.9-69.9l6.3,31.3l4.7-16.5H406h1.1h14.5l4.8,20.1l9.3-54.8l6.4,89.8l10.9-69.9l6.3,31.3
	l4.7-16.5h10.3h1.1h14.5l4.8,20.1L504,8.9l6.4,89.8l10.9-69.9l6.3,31.3l4.7-16.5h6h5.4H554l4.7,20.1L568,8.9l6.4,89.8l10.9-69.9
	l6.3,31.3l4.8-16.5h6h5.3H618l4.8,20.1l9.3-54.8l6.4,89.9l10.8-69.9l6.2,31.2l4.8-16.5h10.3h1h14.6l4.8,20.1l9.3-54.8l6.4,89.9
	l10.8-69.9l6.2,31.2l4.8-16.5H739h1h14.6l4.8,20.1l9.3-54.8l6.4,89.9L786,28.9l6.2,31.2l4.8-16.5h8.1h3.2h12.4l4.8,20.1l9.3-54.8
	l6.4,89.8l10.9-69.9l6.3,31.3l4.8-16.5h10.2h1.1H889l4.8,20.1l9.3-54.8l6.4,89.8l10.9-69.9l6.3,31.3l4.8-16.5h8.1h3.2h12.4l4.8,20.1
	l9.3-54.8l6.4,89.8l10.9-69.9l6.3,31.3l4.7-16.5h8.2h3.2h12.4l4.7,20.1l9.3-54.9l6.5,89.9l10.8-69.9l6.2,31.2l4.8-16.5h8.1h3.2h12.4
	l4.8,20.1l9.3-54.8l6.4,89.8l10.9-69.9l6.3,31.3l4.8-16.5h10.2h1.1h14.5l4.8,20.1l9.3-54.8l6.4,89.8l10.9-69.9l6.3,31.3l4.8-16.5
	h8.1h3.2h12.4l4.8,20.1l9.3-54.8l6.4,89.9l10.8-69.9l6.4,31.3l4.7-16.5h8.2h3.2h12.4l4.7,20.1l9.3-54.9l6.4,89.8l10.9-69.9l6.3,31.3
	l4.8-16.5h10.3h1h14.6l4.7,20.1l9.3-54.9l6.4,89.8l10.9-69.9l6.3,31.3l4.8-16.5h10.3h1h14.6l4.7,20.1l9.3-54.9l6.4,89.8l10.9-69.9
	l6.3,31.3l4.8-16.5h6h5.3h10.3l4.8,20.1l9.3-54.8l6.4,89.9l10.8-69.9l6.2,31.2l4.8-16.5h8.2h3.2h14.5l4.8,20.1l9.3-54.8l6.4,89.9
	l10.8-69.9l6.2,31.2l4.8-16.5h443.6c0.3,0,0.5-0.2,0.5-0.5S2043.4,42.6,2043.1,42.6z"/>
</svg>
