<?xml version="1.0" encoding="utf-8"?>
<!-- Generator: Adobe Illustrator 22.0.1, SVG Export Plug-In . SVG Version: 6.00 Build 0)  -->
<svg version="1.1" id="Layer_1" xmlns="http://www.w3.org/2000/svg" xmlns:xlink="http://www.w3.org/1999/xlink" x="0px" y="0px"
	 viewBox="0 0 822 100" style="enable-background:new 0 0 822 100;" xml:space="preserve">
<style type="text/css">
	.st0{fill:#EE4031;}
</style>
<g id="Heart">
	<path class="st0" d="M60.5,28.8c-2.5-4.1-6.9-5.9-11.6-5.2s-8.5,3.7-11.4,7.2c-3-3.5-6.8-6.4-11.4-7.2c-4.6-0.8-9,1.1-11.5,5.2
		s-2.5,9-0.8,13.4c1.8,5,5.4,9,9.1,12.7c4.7,4.6,9.5,9,14.2,13.4c0.4,0.4,0.7,0.4,1.1,0c4.7-4.5,9.5-9,14.2-13.4
		c3.7-3.6,7.4-7.7,9.1-12.7C63.1,37.9,63.1,32.9,60.5,28.8z"/>
</g>
<path class="st0" d="M1276.3,43.1c0,0.3-0.2,0.5-0.5,0.5h-11.4l-4.7,16.5l-6.4-31.3l-10.8,69.9l-6.4-89.9l-9.3,54.8l-4.8-20.1h-12.4
	h-3.2h-8.1l-4.8,16.5l-6.3-31.3l-10.9,69.9l-6.4-89.8l-9.3,54.8l-4.8-20.1h-14.5h-1.1H1130l-4.8,16.5l-6.3-31.3L1108,98.7l-6.4-89.8
	l-9.3,54.8l-4.8-20.1h-12.4h-3.2h-8.1l-4.8,16.5l-6.2-31.2l-10.8,69.9l-6.5-89.9l-9.3,54.9l-4.7-20.1H1009h-3.2h-8.2l-4.7,16.5
	l-6.3-31.3l-10.9,69.9l-6.4-89.8L960,63.7l-4.8-20.1h-12.4h-3.2h-8.1l-4.8,16.5l-6.3-31.3l-10.9,69.9l-6.4-89.8l-9.3,54.8L889,43.6
	h-14.5h-1.1h-10.2l-4.8,16.5l-6.3-31.3l-10.9,69.9l-6.4-89.8l-9.3,54.8l-4.8-20.1h-12.4h-3.2H797l-4.8,16.5L786,28.9l-10.8,69.9
	l-6.4-89.9l-9.3,54.8l-4.8-20.1H740h-1h-10.3l-4.8,16.5l-6.2-31.2l-10.8,69.9l-6.4-89.9l-9.3,54.8l-4.8-20.1h-14.6h-1h-10.3
	l-4.8,16.5l-6.2-31.2l-10.8,69.9l-6.4-89.9l-9.3,54.8L618,43.6h-10.3h-5.3h-6l-4.8,16.5l-6.3-31.3l-10.9,69.9L568,8.9l-9.3,54.9
	L554,43.6h-10.3h-5.4h-6l-4.7,16.5l-6.3-31.3l-10.9,69.9L504,8.9l-9.3,54.8l-4.8-20.1h-14.5h-1.1H464l-4.7,16.5l-6.3-31.3
	l-10.9,69.9l-6.4-89.8l-9.3,54.8l-4.8-20.1h-14.5H406h-10.3L391,60.1l-6.3-31.3l-10.9,69.9l-6.4-89.8l-9.3,54.8l-4.8-20.1h-16.6
	h-1.1h-10.3l-4.8,16.5l-6.2-31.2l-10.8,69.9L297,8.9l-9.3,54.8l-4.8-20.1h-16.7h-1h-10.3l-4.8,16.5l-6.3-31.3l-10.9,69.9l-6.4-89.8
	l-9.3,54.9l-4.7-20.1h-14.6h-1h-10.3l-4.8,16.5l-6.3-31.3l-10.9,69.9l-6.4-89.8l-9.3,54.9l-4.7-20.1h-16.7h-1.1h-10.3l-4.7,16.5
	l-6.3-31.3L94.2,98.7L87.8,8.9l-9.3,54.8l-4.8-20.1H56c-0.3,0-0.5-0.2-0.5-0.5s0.2-0.5,0.5-0.5h18.5l3.8,16.1l9.9-58.2l6.4,89.4
	L105,23.2l6.5,32.7l3.7-13.3h11.1h1.1H145l3.7,16.1l9.9-58.1l6.4,89.4l10.5-66.7l6.5,32.7l3.8-13.3h11.1h1h15.4l3.7,16.1l9.9-58.1
	l6.4,89.4l10.5-66.7l6.5,32.7l3.8-13.3h11.1h1h17.5l3.8,16.1l9.9-58.2l6.4,89.3l10.4-66.7l6.6,32.8l3.8-13.3h11.1h1.1h17.4l3.8,16.1
	l9.9-58.2l6.4,89.4l10.5-66.7l6.5,32.7l3.7-13.3H406h1.1h15.3l3.8,16.1l9.9-58.2l6.4,89.4l10.5-66.7l6.5,32.7l3.7-13.3h11.1h1.1
	h15.3l3.8,16.1l9.9-58.2l6.4,89.4l10.5-66.7l6.5,32.7l3.7-13.3h6.8h5.4h11.1l3.7,16.1l9.9-58.1l6.4,89.4l10.5-66.7l6.5,32.7
	l3.8-13.3h6.8h5.3h11.1l3.8,16.1l9.9-58.2l6.4,89.3l10.4-66.7l6.6,32.8l3.8-13.3h11.1h1h15.4l3.8,16.1l9.9-58.2l6.4,89.3l10.4-66.7
	l6.6,32.8l3.8-13.3H739h1h15.4l3.8,16.1l9.9-58.2l6.4,89.3l10.4-66.7l6.5,32.8l3.8-13.3h8.9h3.2h13.2l3.8,16.1l9.9-58.2l6.4,89.4
	L852,23.2l6.5,32.7l3.8-13.3h11h1.1h15.3l3.8,16.1l9.9-58.2l6.4,89.4l10.5-66.7l6.5,32.7l3.8-13.3h8.9h3.2H956l3.8,16.1l9.9-58.2
	l6.4,89.4l10.5-66.7l6.5,32.7l3.7-13.3h9h3.2h13.2l3.7,16.1l9.9-58.1l6.5,89.3l10.4-66.7l6.5,32.8l3.8-13.3h8.9h3.2h13.2l3.8,16.1
	l9.9-58.2l6.4,89.4l10.5-66.7l6.5,32.7l3.8-13.3h11h1.1h15.3l3.8,16.1l9.9-58.2l6.4,89.4l10.5-66.7l6.5,32.7l3.8-13.3h8.9h3.2h13.2
	l3.8,16.1l9.9-58.2l6.4,89.3l10.4-66.7l6.6,32.7l3.7-13.3h12.2C1276.1,42.6,1276.3,42.8,1276.3,43.1z"/>
</svg>
