<?xml version="1.0" encoding="utf-8"?>
<!-- Generator: Adobe Illustrator 22.0.1, SVG Export Plug-In . SVG Version: 6.00 Build 0)  -->
<svg version="1.1" xmlns="http://www.w3.org/2000/svg" xmlns:xlink="http://www.w3.org/1999/xlink" x="0px" y="0px"
	 viewBox="0 0 822 100" style="enable-background:new 0 0 822 100;" xml:space="preserve">
<style type="text/css">
	.st0{fill:#EE4031;}
	.st1{fill:none;stroke:#EE4031;stroke-linecap:round;stroke-miterlimit:10;}
</style>
<g id="Heart">
	<path class="st0" d="M59.3,35.7c-2-3.3-5.7-4.8-9.5-4.2c-3.8,0.6-6.9,3-9.4,5.9c-2.4-2.9-5.5-5.3-9.4-5.9c-3.7-0.6-7.4,0.9-9.5,4.2
		c-2,3.3-2.1,7.4-0.8,11c1.5,4.1,4.4,7.4,7.5,10.4c3.8,3.7,7.7,7.4,11.7,11.1c0.4,0.3,0.6,0.3,0.9,0c3.9-3.7,7.8-7.3,11.7-11.1
		c3.1-3,6-6.3,7.5-10.4C61.4,43.1,61.4,39,59.3,35.7z"/>
</g>
<g id="Beats">
	<polyline class="st1" points="753.5,49.5 762,49.5 764,58 768.5,31.5 771.5,73.5 776.5,41.5 779.5,56.5 781.5,49.5 989.5,49.5 	"/>
	<polyline class="st1" points="58.5,49.5 67,49.5 69,58 73.5,31.5 76.5,73.5 81.5,41.5 84.5,56.5 86.5,49.5 822.5,49.5 	"/>
	<polyline class="st1" points="91.5,49.5 100,49.5 102,58 106.5,31.5 109.5,73.5 114.5,41.5 117.5,56.5 119.5,49.5 822.5,49.5 	"/>
	<polyline class="st1" points="124.5,49.5 132,49.5 134,58 138.5,31.5 141.5,73.5 146.5,41.5 149.5,56.5 151.5,49.5 822.5,49.5 	"/>
	<polyline class="st1" points="156.5,49.5 165,49.5 167,58 171.5,31.5 174.5,73.5 179.5,41.5 182.5,56.5 184.5,49.5 822.5,49.5 	"/>
	<polyline class="st1" points="189.5,49.5 198,49.5 200,58 204.5,31.5 207.5,73.5 212.5,41.5 215.5,56.5 217.5,49.5 822.5,49.5 	"/>
	<polyline class="st1" points="222.5,49.5 230,49.5 232,58 236.5,31.5 239.5,73.5 244.5,41.5 247.5,56.5 249.5,49.5 822.5,49.5 	"/>
	<polyline class="st1" points="254.5,49.5 262,49.5 264,58 268.5,31.5 271.5,73.5 276.5,41.5 279.5,56.5 281.5,49.5 822.5,49.5 	"/>
	<polyline class="st1" points="284.5,49.5 292,49.5 294,58 298.5,31.5 301.5,73.5 306.5,41.5 309.5,56.5 311.5,49.5 822.5,49.5 	"/>
	<polyline class="st1" points="314.5,49.5 322,49.5 324,58 328.5,31.5 331.5,73.5 336.5,41.5 339.5,56.5 341.5,49.5 822.5,49.5 	"/>
	<polyline class="st1" points="346.5,49.5 354,49.5 356,58 360.5,31.5 363.5,73.5 368.5,41.5 371.5,56.5 373.5,49.5 822.5,49.5 	"/>
	<polyline class="st1" points="378.5,49.5 386,49.5 388,58 392.5,31.5 395.5,73.5 400.5,41.5 403.5,56.5 405.5,49.5 822.5,49.5 	"/>
	<polyline class="st1" points="409.5,49.5 417,49.5 419,58 423.5,31.5 426.5,73.5 431.5,41.5 434.5,56.5 436.5,49.5 822.5,49.5 	"/>
	<polyline class="st1" points="441.5,49.5 449,49.5 451,58 455.5,31.5 458.5,73.5 463.5,41.5 466.5,56.5 468.5,49.5 822.5,49.5 	"/>
	<polyline class="st1" points="472.5,49.5 480,49.5 482,58 486.5,31.5 489.5,73.5 494.5,41.5 497.5,56.5 499.5,49.5 822.5,49.5 	"/>
	<polyline class="st1" points="503.5,49.5 511,49.5 513,58 517.5,31.5 520.5,73.5 525.5,41.5 528.5,56.5 530.5,49.5 822.5,49.5 	"/>
	<polyline class="st1" points="534.5,49.5 542,49.5 544,58 548.5,31.5 551.5,73.5 556.5,41.5 559.5,56.5 561.5,49.5 822.5,49.5 	"/>
	<polyline class="st1" points="566.5,49.5 574,49.5 576,58 580.5,31.5 583.5,73.5 588.5,41.5 591.5,56.5 593.5,49.5 822.5,49.5 	"/>
	<polyline class="st1" points="597.5,49.5 605,49.5 607,58 611.5,31.5 614.5,73.5 619.5,41.5 622.5,56.5 624.5,49.5 822.5,49.5 	"/>
	<polyline class="st1" points="628.5,49.5 636,49.5 638,58 642.5,31.5 645.5,73.5 650.5,41.5 653.5,56.5 655.5,49.5 822.5,49.5 	"/>
	<polyline class="st1" points="660.5,49.5 668,49.5 670,58 674.5,31.5 677.5,73.5 682.5,41.5 685.5,56.5 687.5,49.5 822.5,49.5 	"/>
	<polyline class="st1" points="692.5,49.5 700,49.5 702,58 706.5,31.5 709.5,73.5 714.5,41.5 717.5,56.5 719.5,49.5 822.5,49.5 	"/>
	<polyline class="st1" points="722.5,49.5 730,49.5 732,58 736.5,31.5 739.5,73.5 744.5,41.5 747.5,56.5 749.5,49.5 755,49.5 	"/>
</g>
</svg>
