<?xml version="1.0" encoding="utf-8"?>
<!-- Generator: Adobe Illustrator 22.0.1, SVG Export Plug-In . SVG Version: 6.00 Build 0)  -->
<svg version="1.1" id="Layer_1" xmlns="http://www.w3.org/2000/svg" xmlns:xlink="http://www.w3.org/1999/xlink" x="0px" y="0px"
	 viewBox="0 0 375 223" style="enable-background:new 0 0 375 223;" xml:space="preserve">
<style type="text/css">
	.st0{fill:#A4CAD5;}
	.st1{fill:#C1C0C0;}
	.st2{display:none;fill:#444444;}
	.st3{fill:#444444;}
	.st4{opacity:0.7;fill:#E6F4F4;enable-background:new    ;}
	.st5{fill:#FFFFFF;}
	.st6{fill:#EE4031;}
</style>
<path class="st0" d="M0,0v159h91.3c0-0.3,0.1-0.6,0.2-0.9v-0.2c3.7-25.3,10.1-37.2,10.1-37.2v0.1c9.6-21.6,25.7-39.1,45.5-49.2
	c-3.2-9.7-6.3-19.5-9.5-29.2c-0.4-1.1,0.6-2.5,2.1-3c31.9-9.8,66-9.8,97.9,0c1.6,0.5,2.5,1.8,2.1,3c-1.5,4.5-2.9,9-4.4,13.5l0,0
	L229.8,73c26,14.4,45.2,41.7,50.8,74.2l2,10.4l0,0l0,0c0.1,0.5,0.2,0.9,0.2,1.4H375V0H0z"/>
<path class="st1" d="M283,164h92v-5h-92.1C283.1,160.7,283.1,162.4,283,164z"/>
<path class="st1" d="M91.3,159H0v5h91C90.9,162.4,91,160.7,91.3,159z"/>
<polygon class="st1" points="234.2,159 140,159 139,164 235.2,164 234.9,162.9 "/>
<path class="st2" d="M202,129.4c3,0,5.5-2.4,5.5-5.4l0.2-16.7c0-3-2.4-5.5-5.4-5.5s-5.5,2.4-5.5,5.4l-0.2,16.7
	C196.6,126.9,199,129.3,202,129.4z"/>
<path class="st2" d="M173.1,129.5L173.1,129.5c3,0,5.5-2.4,5.5-5.4l0.2-16.7c0-3-2.4-5.5-5.4-5.5s-5.5,2.4-5.5,5.4l-0.2,16.7
	C167.7,126.9,170.1,129.4,173.1,129.5z"/>
<path class="st3" d="M184.5,142.7c0.9,0.5,2,0.7,3,0.7c2.1,0.1,4.2-0.7,5.7-2.3c1.5-1.5,2.2-3.6,2-5.7c-0.1-0.7-0.7-1.3-1.4-1.5
	c-1-0.2-1.9,0.4-2.2,1.3v0.2c-0.2,1-0.7,2-1.5,2.7c-0.7,0.7-1.7,1.2-2.7,1.2c-1.1,0-2.1-0.3-3-1c-0.9-0.8-1.5-1.8-1.7-3l0,0
	c-0.1-0.5-0.5-0.9-1-1c-0.7-0.1-1.3,0.4-1.4,1.1c-0.2,2,0.4,3.9,1.7,5.4C182.8,141.6,183.6,142.3,184.5,142.7z"/>
<path class="st0" d="M282.9,159c-0.1-0.5-0.1-0.9-0.2-1.4l0,0C282.7,158.1,282.8,158.5,282.9,159L282.9,159z"/>
<path class="st4" d="M282.9,159c-0.1-0.5-0.1-0.9-0.2-1.4l0,0C282.7,158.1,282.8,158.5,282.9,159L282.9,159z"/>
<path class="st1" d="M283,164L283,164c0.1-1.6,0.1-3.3-0.1-5l0,0C283.1,160.7,283.1,162.4,283,164z"/>
<path class="st4" d="M283,164L283,164c0.1-1.6,0.1-3.3-0.1-5l0,0C283.1,160.7,283.1,162.4,283,164z"/>
<polygon class="st1" points="234.9,162.9 235.2,164 235.2,164 "/>
<polygon class="st4" points="234.9,162.9 235.2,164 235.2,164 "/>
<path d="M263.8,185.7C263.7,185.7,263.7,185.7,263.8,185.7c-13,2.5-25.5-5.9-28.1-18.9l0,0l-0.5-2.8l0,0l0.5,2.8l0,0
	C238.2,179.7,250.8,188.2,263.8,185.7C263.7,185.7,263.8,185.7,263.8,185.7c10.8-2.1,18.5-11.2,19.3-21.7l0,0
	C282.2,174.5,274.6,183.6,263.8,185.7z"/>
<path class="st4" d="M263.8,185.7C263.7,185.7,263.7,185.7,263.8,185.7c-13,2.5-25.5-5.9-28.1-18.9l0,0l-0.5-2.8l0,0l0.5,2.8l0,0
	C238.2,179.7,250.8,188.2,263.8,185.7C263.7,185.7,263.8,185.7,263.8,185.7c10.8-2.1,18.5-11.2,19.3-21.7l0,0
	C282.2,174.5,274.6,183.6,263.8,185.7z"/>
<path class="st5" d="M254.7,175.5c-11.6-1.9-21.2-19.7-21.2-19.7l1.4,7.1l0.2,1.1l0.5,2.8l0,0c2.5,13,15.1,21.4,28.1,18.9l0,0
	c10.8-2.1,18.5-11.2,19.3-21.7c0.1-1.6,0.1-3.3-0.1-5c-0.1-0.5-0.1-0.9-0.2-1.4C282.6,157.8,274.4,178.7,254.7,175.5z"/>
<path class="st4" d="M254.7,175.5c-11.6-1.9-21.2-19.7-21.2-19.7l1.4,7.1l0.2,1.1l0.5,2.8l0,0c2.5,13,15.1,21.4,28.1,18.9l0,0
	c10.8-2.1,18.5-11.2,19.3-21.7c0.1-1.6,0.1-3.3-0.1-5c-0.1-0.5-0.1-0.9-0.2-1.4C282.6,157.8,274.4,178.7,254.7,175.5z"/>
<path class="st5" d="M114,174.6c11.4,2.3,24.3-7.2,24.4-7.3l0,0l0,0l0.6-3.2l1-5h94.2l0.8,3.9l-1.4-7.1c0,0,9.6,17.8,21.2,19.7
	c19.7,3.2,27.9-17.7,27.9-17.8l0,0l-2-10.4c-5.6-32.5-24.8-59.8-50.8-74.2v0.1c0,0-22.9,7.6-42.2,7.1s-40.5-8.7-40.5-8.7L143,58.6
	c0,0,13.2,12.4,44.2,13.3c30.3,0.9,47.7-15.5,48.3-16.1c1.5-4.5,2.9-9,4.4-13.5c0.4-1.1-0.6-2.5-2.1-3c-31.9-9.8-66-9.8-97.9,0
	c-1.6,0.5-2.5,1.8-2.1,3c3.1,9.7,6.3,19.5,9.5,29.2c-19.8,10.2-36,27.6-45.5,49.2C98.4,147.9,102.5,172.2,114,174.6z M176.4,52.6
	c1.3-6.7,7.7-11.1,14.3-9.8s10.9,7.8,9.6,14.5c-1.3,6.7-7.7,11.1-14.3,9.8C179.3,65.8,175,59.3,176.4,52.6z M180.4,135.4
	c0.1-0.7,0.7-1.1,1.4-1.1c0.5,0.1,1,0.5,1,1l0,0c0.2,1.2,0.8,2.2,1.7,3c0.9,0.7,1.9,1,3,1c1-0.1,2-0.5,2.7-1.2s1.3-1.7,1.5-2.7v-0.2
	c0.2-1,1.2-1.6,2.2-1.3c0.7,0.2,1.3,0.8,1.4,1.5c0.2,2.1-0.5,4.2-2,5.7s-3.6,2.3-5.7,2.3c-1,0-2.1-0.3-3-0.7s-1.8-1.1-2.4-1.8
	C180.8,139.4,180.2,137.4,180.4,135.4z"/>
<path class="st5" d="M91,164c0.1,2.1,0.5,4.2,1.2,6.2c-1.2-3.7-1.6-7.8-0.8-12.1c0-0.1,0-0.1,0-0.2v0.2c-0.1,0.3-0.1,0.6-0.2,0.9
	C91,160.7,90.9,162.4,91,164z"/>
<path class="st5" d="M92.5,171.1c0-0.1-0.1-0.2-0.1-0.4C92.4,170.8,92.5,170.9,92.5,171.1z"/>
<path class="st0" d="M93.6,147.1c0.1-0.3,0.1-0.6,0.2-1c1.6-8.9,4.3-17.4,7.8-25.3v-0.1c0,0-6.4,11.9-10.1,37.2L93.6,147.1
	L93.6,147.1z"/>
<path class="st4" d="M93.6,147.1c0.1-0.3,0.1-0.6,0.2-1c1.6-8.9,4.3-17.4,7.8-25.3v-0.1c0,0-6.4,11.9-10.1,37.2L93.6,147.1
	L93.6,147.1z"/>
<path d="M92.4,170.7c-0.1-0.2-0.1-0.3-0.2-0.5C92.3,170.4,92.3,170.5,92.4,170.7z"/>
<path class="st4" d="M92.4,170.7c-0.1-0.2-0.1-0.3-0.2-0.5C92.3,170.4,92.3,170.5,92.4,170.7z"/>
<path d="M110.4,186.1C110.3,186.1,110.3,186.1,110.4,186.1c-8.5-1.7-15-7.6-17.8-15.1C95.4,179,102.3,184.9,110.4,186.1
	c13,2.6,25.5-5.9,28.1-18.8l0,0l0,0C135.8,180.2,123.3,188.7,110.4,186.1z"/>
<path class="st4" d="M110.4,186.1C110.3,186.1,110.3,186.1,110.4,186.1c-8.5-1.7-15-7.6-17.8-15.1C95.4,179,102.3,184.9,110.4,186.1
	c13,2.6,25.5-5.9,28.1-18.8l0,0l0,0C135.8,180.2,123.3,188.7,110.4,186.1z"/>
<path class="st5" d="M92.2,170.2c0.1,0.2,0.1,0.3,0.2,0.5c0,0.1,0.1,0.2,0.1,0.4c2.8,7.5,9.4,13.4,17.8,15.1l0,0
	c12.9,2.5,25.5-5.9,28-18.8c-0.2,0.1-13,9.6-24.4,7.3c-11.5-2.3-15.6-26.7-12.4-53.8c-3.5,7.9-6.2,16.4-7.8,25.3
	c-0.1,0.3-0.2,0.6-0.2,1l0,0L91.4,158c0,0.1,0,0.1,0,0.2C90.7,162.4,91,166.5,92.2,170.2z"/>
<path class="st4" d="M92.2,170.2c0.1,0.2,0.1,0.3,0.2,0.5c0,0.1,0.1,0.2,0.1,0.4c2.8,7.5,9.4,13.4,17.8,15.1l0,0
	c12.9,2.5,25.5-5.9,28-18.8c-0.2,0.1-13,9.6-24.4,7.3c-11.5-2.3-15.6-26.7-12.4-53.8c-3.5,7.9-6.2,16.4-7.8,25.3
	c-0.1,0.3-0.2,0.6-0.2,1l0,0L91.4,158c0,0.1,0,0.1,0,0.2C90.7,162.4,91,166.5,92.2,170.2z"/>
<path class="st0" d="M229.8,73l5.6-17.1l0,0C233.5,61.6,231.7,67.3,229.8,73L229.8,73z"/>
<path class="st4" d="M229.8,73l5.6-17.1l0,0C233.5,61.6,231.7,67.3,229.8,73L229.8,73z"/>
<path class="st5" d="M187.1,72C156.2,71,143,58.6,143,58.6l4.1,12.9c0,0,21.2,8.3,40.5,8.7c19.3,0.5,42.2-7.1,42.2-7.1V73l0,0
	c1.8-5.7,3.7-11.4,5.6-17.1C234.8,56.4,217.4,72.9,187.1,72z"/>
<path class="st4" d="M187.1,72C156.2,71,143,58.6,143,58.6l4.1,12.9c0,0,21.2,8.3,40.5,8.7c19.3,0.5,42.2-7.1,42.2-7.1V73l0,0
	c1.8-5.7,3.7-11.4,5.6-17.1C234.8,56.4,217.4,72.9,187.1,72z"/>
<path class="st6" d="M185.9,67.1c6.6,1.3,13-3.1,14.3-9.8s-3-13.2-9.6-14.5s-13,3.1-14.3,9.8C175,59.3,179.3,65.8,185.9,67.1z
	 M180.3,51.7l5.1,0.1l0.1-5.2l5.9,0.1l-0.1,5.2l5.1,0.1l-0.1,6l-5.2-0.1l-0.1,5.2l-5.9-0.1l0.1-5.2l-5.2-0.1L180.3,51.7z"/>
<polygon class="st5" points="185.1,63.1 191,63.2 191.2,58 196.3,58.1 196.5,52.1 191.3,51.9 191.4,46.7 185.6,46.6 185.4,51.8 
	180.3,51.7 180.1,57.8 185.2,57.9 "/>
<circle class="st3" cx="167.9" cy="116.6" r="6.2"/>
<circle class="st3" cx="205.5" cy="116.6" r="6.2"/>
</svg>
