<?xml version="1.0" encoding="utf-8"?>
<!-- Generator: Adobe Illustrator 22.0.1, SVG Export Plug-In . SVG Version: 6.00 Build 0)  -->
<svg version="1.1" id="Layer_1" xmlns="http://www.w3.org/2000/svg" xmlns:xlink="http://www.w3.org/1999/xlink" x="0px" y="0px"
	 viewBox="0 0 375 287" style="enable-background:new 0 0 375 287;" xml:space="preserve">
<style type="text/css">
	.st0{fill:#FFFFFF;}
	.st1{clip-path:url(#SVGID_2_);fill:#A4CAD5;}
	.st2{clip-path:url(#SVGID_2_);fill:#FFFFFF;}
	.st3{opacity:0.8;clip-path:url(#SVGID_2_);enable-background:new    ;}
	.st4{clip-path:url(#SVGID_4_);fill:none;stroke:#C1C0C0;stroke-width:5;}
	.st5{opacity:0.2;clip-path:url(#SVGID_2_);enable-background:new    ;}
	.st6{clip-path:url(#SVGID_6_);fill:#E6F4F4;}
	.st7{clip-path:url(#SVGID_6_);fill:none;stroke:#C1C0C0;stroke-width:5;}
	.st8{clip-path:url(#SVGID_8_);fill:#A4CAD5;}
	.st9{clip-path:url(#SVGID_2_);fill:#EE4031;}
	.st10{clip-path:url(#SVGID_2_);fill:#444444;}
	.st11{clip-path:url(#SVGID_2_);fill:none;stroke:#444444;stroke-width:3;stroke-linecap:round;stroke-miterlimit:10;}
	.st12{clip-path:url(#SVGID_10_);fill:#A4CAD5;}
	.st13{clip-path:url(#SVGID_12_);fill:#A4CAD5;}
</style>
<rect class="st0" width="375" height="287"/>
<g>
	<defs>
		<rect id="SVGID_1_" width="375" height="287"/>
	</defs>
	<clipPath id="SVGID_2_">
		<use xlink:href="#SVGID_1_"  style="overflow:visible;"/>
	</clipPath>
	<rect class="st1" width="375" height="159"/>
	<path class="st2" d="M285,167.8c0,7-0.6,14-1.9,20.9c-1.2,6.9-3.1,13.6-5.5,20.1c-2.4,6.5-5.4,12.7-9,18.5
		c-3.5,5.8-7.6,11.3-12.1,16.2c-4.5,5-9.4,9.4-14.7,13.3c-5.3,3.9-10.9,7.2-16.8,9.9c-5.9,2.7-11.9,4.7-18.2,6.1
		c-6.2,1.4-12.6,2.1-18.9,2.1s-12.7-0.7-18.9-2.1c-6.2-1.4-12.3-3.4-18.2-6.1c-5.9-2.7-11.5-6-16.8-9.9c-5.3-3.9-10.2-8.3-14.7-13.3
		c-4.5-5-8.5-10.4-12.1-16.2c-3.5-5.8-6.5-12-9-18.5c-2.4-6.5-4.3-13.2-5.5-20.1c-1.2-6.9-1.9-13.9-1.9-20.9s0.6-14,1.9-20.9
		c1.2-6.9,3.1-13.6,5.5-20.1c2.4-6.5,5.4-12.7,9-18.5s7.6-11.3,12.1-16.2s9.4-9.4,14.7-13.3c5.3-3.9,10.9-7.2,16.8-9.9
		c5.9-2.7,11.9-4.7,18.2-6.1c6.2-1.4,12.6-2.1,18.9-2.1s12.7,0.7,18.9,2.1c6.2,1.4,12.3,3.4,18.2,6.1c5.9,2.7,11.5,6,16.8,9.9
		c5.3,3.9,10.2,8.3,14.7,13.3c4.5,5,8.5,10.4,12.1,16.2c3.5,5.8,6.5,12,9,18.5c2.4,6.5,4.3,13.2,5.5,20.1
		C284.4,153.8,285,160.8,285,167.8z"/>
	<g class="st3">
		<g>
			<defs>
				<rect id="SVGID_3_" y="159" width="375" height="128"/>
			</defs>
			<clipPath id="SVGID_4_">
				<use xlink:href="#SVGID_3_"  style="overflow:visible;"/>
			</clipPath>
			<rect x="-2.5" y="161.5" class="st4" width="380" height="128"/>
		</g>
	</g>
	<g class="st5">
		<g>
			<defs>
				<rect id="SVGID_5_" y="159" width="375" height="128"/>
			</defs>
			<clipPath id="SVGID_6_">
				<use xlink:href="#SVGID_5_"  style="overflow:visible;"/>
			</clipPath>
			<rect x="-2.5" y="161.5" class="st6" width="380" height="128"/>
			<rect x="-2.5" y="161.5" class="st7" width="380" height="128"/>
		</g>
	</g>
	<path class="st2" d="M140.5,74.8c27.9,8.8,84.8,7.9,96.6,0.7c0.1,0.2-0.8-19,6.2-23.2s-29.5-23.9-54.8-23s-59.5,9.4-55.8,12.2
		C146.1,51.5,140.5,74.8,140.5,74.8z"/>
	<g class="st5">
		<g>
			<defs>
				<rect id="SVGID_7_" x="139" y="51" width="99" height="31"/>
			</defs>
			<clipPath id="SVGID_8_">
				<use xlink:href="#SVGID_7_"  style="overflow:visible;"/>
			</clipPath>
			<path class="st8" d="M139.8,51.6c3.7,10.6,0.6,23.2,0.6,23.2c27.9,8.8,84.8,7.9,96.6,0.7c0-3.2,0.1-6.4,0.5-9.6
				c-5.7,2.3-36.9,3.3-57.5,0C159.5,62.6,139.8,51.6,139.8,51.6z"/>
		</g>
	</g>
	<path class="st9" d="M193.3,45.1c4.1,0.9,7.3,3.1,9.6,6.6s3,7.4,2.1,11.6c-0.9,4.2-3.1,7.5-6.6,9.8c-3.5,2.4-7.3,3.1-11.4,2.3
		c-4.1-0.9-7.3-3.1-9.6-6.6s-3-7.4-2.1-11.6c0.9-4.2,3.1-7.5,6.6-9.8C185.4,45,189.2,44.2,193.3,45.1z"/>
	<polygon class="st2" points="193.4,70.6 186.1,70.4 186.9,49.8 194.2,50 	"/>
	<polygon class="st2" points="200.4,56.8 200.1,64.3 179.9,63.6 180.2,56.1 	"/>
	<path class="st10" d="M199.5,125.7l0.3-18.6c0-1.7,0.6-3.1,1.9-4.3s2.7-1.7,4.4-1.7s3.1,0.6,4.3,1.9c1.2,1.2,1.7,2.7,1.7,4.4
		l-0.3,18.6c0,1.7-0.6,3.1-1.9,4.3s-2.7,1.7-4.4,1.7s-3.1-0.6-4.3-1.9C200,128.8,199.5,127.4,199.5,125.7z"/>
	<path class="st10" d="M167.1,125.7l0.3-18.6c0-1.7,0.6-3.1,1.9-4.3s2.7-1.7,4.4-1.7s3.1,0.6,4.3,1.9c1.2,1.2,1.7,2.7,1.7,4.4
		l-0.3,18.6c0,1.7-0.6,3.1-1.9,4.3s-2.7,1.7-4.4,1.7s-3.1-0.6-4.3-1.9C167.7,128.8,167.1,127.4,167.1,125.7z"/>
	<path class="st11" d="M196,137.9c0,3.6-2.9,6.6-6.6,6.6s-6.6-2.9-6.6-6.6"/>
	<path class="st2" d="M237.4,168.8l-2.2-11.2c-0.6-3.2-0.6-6.3,0-9.5c0.6-3.2,1.9-6.1,3.7-8.8s4.1-4.9,6.7-6.7
		c2.7-1.8,5.6-3,8.8-3.6c3.2-0.6,6.3-0.6,9.5,0c3.2,0.6,6.1,1.9,8.8,3.7c2.7,1.8,4.9,4.1,6.7,6.7c1.8,2.7,3,5.6,3.6,8.8l2.2,11.2
		c0.6,3.2,0.6,6.3,0,9.5c-0.6,3.2-1.9,6.1-3.7,8.8c-1.8,2.7-4.1,4.9-6.7,6.7s-5.6,3-8.8,3.6c-3.2,0.6-6.3,0.6-9.5,0
		c-3.2-0.6-6.1-1.9-8.8-3.7c-2.7-1.8-4.9-4.1-6.7-6.7S238,172,237.4,168.8z"/>
	<g class="st5">
		<g>
			<defs>
				<rect id="SVGID_9_" x="235" y="157" width="51" height="32"/>
			</defs>
			<clipPath id="SVGID_10_">
				<use xlink:href="#SVGID_9_"  style="overflow:visible;"/>
			</clipPath>
			<path class="st12" d="M285.2,159.5c2.6,13.2-6.1,26-19.3,28.6c-13.2,2.6-26-6-28.6-19.3l-2.1-11.2c0,0,9.7,18.1,21.5,20
				C276.9,180.9,285.2,159.5,285.2,159.5z"/>
		</g>
	</g>
	<path class="st2" d="M140.5,158.1l-2.2,11.2c-0.6,3.2-1.8,6.1-3.6,8.8c-1.8,2.7-4,4.9-6.7,6.7c-2.7,1.8-5.6,3-8.8,3.7
		s-6.3,0.7-9.5,0c-3.2-0.6-6.1-1.8-8.8-3.6c-2.7-1.8-4.9-4-6.7-6.7c-1.8-2.7-3-5.6-3.7-8.8c-0.6-3.2-0.7-6.3,0-9.5l2.2-11.2
		c0.6-3.2,1.8-6.1,3.6-8.8c1.8-2.7,4-4.9,6.7-6.7c2.7-1.8,5.6-3,8.8-3.7c3.2-0.6,6.3-0.7,9.5,0c3.2,0.6,6.1,1.8,8.8,3.6
		s4.9,4,6.7,6.7c1.8,2.7,3,5.6,3.7,8.8C141.1,151.7,141.1,154.9,140.5,158.1z"/>
	<g class="st5">
		<g>
			<defs>
				<rect id="SVGID_11_" x="90" y="121" width="49" height="68"/>
			</defs>
			<clipPath id="SVGID_12_">
				<use xlink:href="#SVGID_11_"  style="overflow:visible;"/>
			</clipPath>
			<path class="st13" d="M100.9,121.9c0,0-6.6,12.2-10.3,38.1c-2.6,14.2,7,26.6,19.3,28.6c13.2,2.6,26-6,28.6-19.3
				c0,0-13.2,9.8-24.9,7.4C101.8,174.4,97.6,149.5,100.9,121.9z"/>
		</g>
	</g>
</g>
</svg>
