<?xml version="1.0" encoding="utf-8"?>
<!-- Generator: Adobe Illustrator 22.0.1, SVG Export Plug-In . SVG Version: 6.00 Build 0)  -->
<svg version="1.1" id="Layer_1" xmlns="http://www.w3.org/2000/svg" xmlns:xlink="http://www.w3.org/1999/xlink" x="0px" y="0px"
	 viewBox="0 0 400 100" style="enable-background:new 0 0 400 100;" xml:space="preserve">
<style type="text/css">
	.st0{fill:#FCFCFC;stroke:#EE4031;stroke-width:2;stroke-miterlimit:10;}
	.st1{fill:none;stroke:#EE4031;stroke-width:2;stroke-miterlimit:10;}
	.st2{fill:#EE4031;}
	.st3{fill:none;stroke:#EE4031;stroke-linecap:round;stroke-linejoin:round;stroke-miterlimit:10;}
</style>
<g>
	<path class="st0" d="M90,40.5"/>
	<path class="st1" d="M397.5,40.5"/>
	<path class="st2" d="M92.4,15.5C88.1,8.3,80,5,71.8,6.3c-8.3,1.3-15,6.6-20.3,12.8c-5.3-6.2-12-11.5-20.3-12.8
		C23.1,5,15.1,8.3,10.7,15.5c-4.4,7.2-4.5,16-1.7,23.8c3.2,8.9,9.6,16.1,16.3,22.6c8.3,8.1,16.8,16,25.3,24c0.8,0.7,1.2,0.7,2,0
		c8.4-8,16.9-15.9,25.3-24c6.7-6.5,13.1-13.7,16.3-22.6C96.9,31.5,96.9,22.7,92.4,15.5z"/>
</g>
<polyline class="st3" points="95.5,34.3 103,34.3 105,43 109.5,16.5 112.5,58.5 117.5,26.5 120.5,41.5 122.5,34.5 128,34.5 "/>
<line class="st3" x1="400" y1="35.5" x2="127" y2="34.5"/>
</svg>
